<mxfile host="app.diagrams.net" modified="2023-12-10T13:41:38.247Z" agent="Mozilla/5.0 (Windows NT 10.0; Win64; x64) AppleWebKit/537.36 (KHTML, like Gecko) Chrome/119.0.0.0 Safari/537.36" etag="2V7GGf9Wi02a3tCoLMO7" version="22.1.7" type="github">
  <diagram name="Page-1" id="c5MkyFA5JLBFRSzljtHn">
    <mxGraphModel dx="880" dy="456" grid="1" gridSize="10" guides="1" tooltips="1" connect="1" arrows="1" fold="1" page="1" pageScale="1" pageWidth="827" pageHeight="1169" math="0" shadow="0">
      <root>
        <mxCell id="0" />
        <mxCell id="1" parent="0" />
        <mxCell id="Uren7bPXZaYAR293BHd9-2" style="edgeStyle=orthogonalEdgeStyle;rounded=0;orthogonalLoop=1;jettySize=auto;html=1;exitX=0.5;exitY=1;exitDx=0;exitDy=0;exitPerimeter=0;" edge="1" parent="1" source="Uren7bPXZaYAR293BHd9-1" target="Uren7bPXZaYAR293BHd9-3">
          <mxGeometry relative="1" as="geometry">
            <mxPoint x="414" y="120" as="targetPoint" />
          </mxGeometry>
        </mxCell>
        <mxCell id="Uren7bPXZaYAR293BHd9-1" value="start" style="strokeWidth=2;html=1;shape=mxgraph.flowchart.terminator;whiteSpace=wrap;" vertex="1" parent="1">
          <mxGeometry x="364" y="30" width="100" height="60" as="geometry" />
        </mxCell>
        <mxCell id="Uren7bPXZaYAR293BHd9-4" style="edgeStyle=orthogonalEdgeStyle;rounded=0;orthogonalLoop=1;jettySize=auto;html=1;exitX=0.5;exitY=1;exitDx=0;exitDy=0;" edge="1" parent="1" source="Uren7bPXZaYAR293BHd9-3" target="Uren7bPXZaYAR293BHd9-5">
          <mxGeometry relative="1" as="geometry">
            <mxPoint x="414" y="210" as="targetPoint" />
          </mxGeometry>
        </mxCell>
        <mxCell id="Uren7bPXZaYAR293BHd9-3" value="Jarak dan&lt;br&gt;waktu" style="shape=parallelogram;html=1;strokeWidth=2;perimeter=parallelogramPerimeter;whiteSpace=wrap;rounded=1;arcSize=12;size=0.23;" vertex="1" parent="1">
          <mxGeometry x="364" y="120" width="100" height="60" as="geometry" />
        </mxCell>
        <mxCell id="Uren7bPXZaYAR293BHd9-7" style="edgeStyle=orthogonalEdgeStyle;rounded=0;orthogonalLoop=1;jettySize=auto;html=1;exitX=0.5;exitY=1;exitDx=0;exitDy=0;" edge="1" parent="1" source="Uren7bPXZaYAR293BHd9-5" target="Uren7bPXZaYAR293BHd9-8">
          <mxGeometry relative="1" as="geometry">
            <mxPoint x="414" y="300" as="targetPoint" />
          </mxGeometry>
        </mxCell>
        <mxCell id="Uren7bPXZaYAR293BHd9-5" value="Jarak : Waktu" style="rounded=1;whiteSpace=wrap;html=1;absoluteArcSize=1;arcSize=14;strokeWidth=2;" vertex="1" parent="1">
          <mxGeometry x="339" y="210" width="150" height="60" as="geometry" />
        </mxCell>
        <mxCell id="Uren7bPXZaYAR293BHd9-9" style="edgeStyle=orthogonalEdgeStyle;rounded=0;orthogonalLoop=1;jettySize=auto;html=1;exitX=0.5;exitY=1;exitDx=0;exitDy=0;exitPerimeter=0;" edge="1" parent="1" source="Uren7bPXZaYAR293BHd9-8" target="Uren7bPXZaYAR293BHd9-10">
          <mxGeometry relative="1" as="geometry">
            <mxPoint x="415" y="380" as="targetPoint" />
          </mxGeometry>
        </mxCell>
        <mxCell id="Uren7bPXZaYAR293BHd9-8" value="Hasil dari&amp;nbsp;&lt;br&gt;Kecepatan : Waktu" style="strokeWidth=2;html=1;shape=mxgraph.flowchart.display;whiteSpace=wrap;" vertex="1" parent="1">
          <mxGeometry x="350" y="300" width="130" height="60" as="geometry" />
        </mxCell>
        <mxCell id="Uren7bPXZaYAR293BHd9-10" value="end" style="strokeWidth=2;html=1;shape=mxgraph.flowchart.terminator;whiteSpace=wrap;" vertex="1" parent="1">
          <mxGeometry x="365" y="390" width="100" height="60" as="geometry" />
        </mxCell>
      </root>
    </mxGraphModel>
  </diagram>
</mxfile>
